<?xml version="1.0" encoding="utf-8"?>
<svg xmlns="http://www.w3.org/2000/svg" fill="none" height="100%" overflow="visible" preserveAspectRatio="none" style="display: block;" viewBox="0 0 34.56 34.56" width="100%">
<g clip-path="url(#clip0_0_77221)" id="Social link 1">
<path d="M17.28 3.11472C21.8938 3.11472 22.441 3.132 24.264 3.21552C28.9469 3.42864 31.1342 5.65056 31.3474 10.2989C31.4309 12.1205 31.4467 12.6677 31.4467 17.2814C31.4467 21.8966 31.4294 22.4424 31.3474 24.264C31.1328 28.908 28.9512 31.1342 24.264 31.3474C22.441 31.4309 21.8966 31.4482 17.28 31.4482C12.6662 31.4482 12.119 31.4309 10.2974 31.3474C5.60304 31.1328 3.4272 28.9008 3.21408 24.2626C3.13056 22.441 3.11328 21.8952 3.11328 17.28C3.11328 12.6662 3.132 12.1205 3.21408 10.2974C3.42864 5.65056 5.61024 3.4272 10.2974 3.21408C12.1205 3.132 12.6662 3.11472 17.28 3.11472ZM17.28 0C12.587 0 11.9995 0.02016 10.1563 0.10368C3.8808 0.39168 0.39312 3.8736 0.10512 10.1549C0.02016 11.9995 0 12.587 0 17.28C0 21.973 0.02016 22.5619 0.10368 24.4051C0.39168 30.6806 3.8736 34.1683 10.1549 34.4563C11.9995 34.5398 12.587 34.56 17.28 34.56C21.973 34.56 22.5619 34.5398 24.4051 34.4563C30.6749 34.1683 34.1712 30.6864 34.4549 24.4051C34.5398 22.5619 34.56 21.973 34.56 17.28C34.56 12.587 34.5398 11.9995 34.4563 10.1563C34.1741 3.88656 30.6878 0.39312 24.4066 0.10512C22.5619 0.02016 21.973 0 17.28 0ZM17.28 8.40672C12.3797 8.40672 8.40672 12.3797 8.40672 17.28C8.40672 22.1803 12.3797 26.1547 17.28 26.1547C22.1803 26.1547 26.1533 22.1818 26.1533 17.28C26.1533 12.3797 22.1803 8.40672 17.28 8.40672ZM17.28 23.04C14.099 23.04 11.52 20.4624 11.52 17.28C11.52 14.099 14.099 11.52 17.28 11.52C20.461 11.52 23.04 14.099 23.04 17.28C23.04 20.4624 20.461 23.04 17.28 23.04ZM26.5046 5.9832C25.3584 5.9832 24.4296 6.912 24.4296 8.0568C24.4296 9.2016 25.3584 10.1304 26.5046 10.1304C27.6494 10.1304 28.5768 9.2016 28.5768 8.0568C28.5768 6.912 27.6494 5.9832 26.5046 5.9832Z" fill="var(--fill-0, #CC513B)" id="Vector"/>
</g>
<defs>
<clipPath id="clip0_0_77221">
<rect fill="white" height="34.56" width="34.56"/>
</clipPath>
</defs>
</svg>