<?xml version="1.0" encoding="utf-8"?>
<svg xmlns="http://www.w3.org/2000/svg" fill="none" height="100%" overflow="visible" preserveAspectRatio="none" style="display: block;" viewBox="0 0 34.56 34.56" width="100%">
<g clip-path="url(#clip0_0_77271)" id="Social link 2">
<g id="Vector">
<path clip-rule="evenodd" d="M34.56 4.32C34.56 1.9357 32.6243 0 30.24 0H4.32C1.9357 0 0 1.9357 0 4.32V30.24C0 32.6243 1.9357 34.56 4.32 34.56H30.24C32.6243 34.56 34.56 32.6243 34.56 30.24V4.32Z" fill="#CC513B" fill-rule="evenodd"/>
<path d="M9.90946 12.0586H4.12066V29.471H9.90946V12.0586Z" fill="var(--fill-0, white)"/>
<path d="M7.05456 3.66328C5.07404 3.66328 3.78 4.96536 3.78 6.67196C3.78 8.34272 5.03469 9.6807 6.97795 9.6807H7.01534C9.03379 9.6807 10.2902 8.34272 10.2902 6.67196C10.2527 4.96536 9.03393 3.66328 7.05456 3.66328Z" fill="var(--fill-0, white)"/>
<path d="M24.1164 11.6494C21.0458 11.6494 19.6704 13.338 18.9002 14.5241V12.0588H13.1129C13.1897 13.6921 13.1129 29.4712 13.1129 29.4712H18.9002V19.7469C18.9002 19.2264 18.9376 18.706 19.091 18.334C19.5087 17.2945 20.4616 16.2178 22.0605 16.2178C24.1538 16.2178 24.9925 17.8151 24.9925 20.1548V29.4712H30.78V19.4859C30.78 14.1374 27.9244 11.6494 24.1164 11.6494Z" fill="var(--fill-0, white)"/>
</g>
</g>
<defs>
<clipPath id="clip0_0_77271">
<rect fill="white" height="34.56" width="34.56"/>
</clipPath>
</defs>
</svg>